# xmcd
#
# Track frame offsets: 
#        150
#        15433
#        28535
#        43373
#        56850
#        69898
#        84660
#        98970
#        113155
#        127243
#        141900
#        155218
#        169510
#        184575
#        197668
#        209065
#        223530
#        239855
#        252710
#        266438
#        280015
#        296328
#
# Disc length: 4137 seconds
#
# Revision: 0
# Processed by: cddbd v1.5.2PL0 Copyright (c) Steve Scherf et al.
# Submitted via: ExactAudioCopy v0.95b3
#
DISCID=5a102716
DTITLE=Frank Sinatra  - Volume 2 1940 Complete Edition
DYEAR=1900
DGENRE=
TTITLE0=Polka Dots An D Moonbeams
TTITLE1=The Fable Of The Rose
TTITLE2=This Is The Beginning Of The End
TTITLE3=Hear My Song. Violetta
TTITLE4=Hear My Song. Violetta
TTITLE5=Fools Rush In
TTITLE6=Devil May Care
TTITLE7=April Played The Fiddle
TTITLE8=I Haven't Time To Be A Millionnaire
TTITLE9=Imagination
TTITLE10=Yours Is My Heart Alone
TTITLE11=You're Lonely And I Am Lonely
TTITLE12=East Of The Sun
TTITLE13=Head On My Pillow
TTITLE14=It's A Lovely Day Tomorrow
TTITLE15=I'll Never Smile Again
TTITLE16=All This And Heaven Too
TTITLE17=Where Do You Keep Your Heart
TTITLE18=Whispering
TTITLE19=Trade Winds
TTITLE20=The One I Love (Belongs To Somebody Else)
TTITLE21=The Call Of The Canyon
EXTD=
EXTT0=
EXTT1=
EXTT2=
EXTT3=
EXTT4=
EXTT5=
EXTT6=
EXTT7=
EXTT8=
EXTT9=
EXTT10=
EXTT11=
EXTT12=
EXTT13=
EXTT14=
EXTT15=
EXTT16=
EXTT17=
EXTT18=
EXTT19=
EXTT20=
EXTT21=
PLAYORDER=
